<svg width="12" height="12" viewBox="0 0 12 12" fill="none" xmlns="http://www.w3.org/2000/svg">
<path fill-rule="evenodd" clip-rule="evenodd" d="M7.84 6.84667L11.66 10.6667L10.6667 11.66L6.84667 7.84C6.13333 8.35333 5.27333 8.66667 4.33333 8.66667C1.94 8.66667 0 6.72667 0 4.33333C0 1.94 1.94 0 4.33333 0C6.72667 0 8.66667 1.94 8.66667 4.33333C8.66667 5.27333 8.35333 6.13333 7.84 6.84667ZM4.33333 1.33333C2.67333 1.33333 1.33333 2.67333 1.33333 4.33333C1.33333 5.99333 2.67333 7.33333 4.33333 7.33333C5.99333 7.33333 7.33333 5.99333 7.33333 4.33333C7.33333 2.67333 5.99333 1.33333 4.33333 1.33333Z" fill="#5A5A5A"/>
</svg>
