<svg width="20" height="18" viewBox="0 0 20 18" fill="none" xmlns="http://www.w3.org/2000/svg">
<path d="M20 0.00012207L18.33 1.67012L16.67 0.00012207L15 1.67012L13.33 0.00012207L11.67 1.67012L10 0.00012207L8.33 1.67012L6.67 0.00012207L5 1.67012L3.33 0.00012207L1.67 1.67012L0 0.00012207V16.0001C0 17.1001 0.9 18.0001 2 18.0001H18C19.1 18.0001 20 17.1001 20 16.0001V0.00012207ZM9 16.0001H2V10.0001H9V16.0001ZM18 16.0001H11V14.0001H18V16.0001ZM18 12.0001H11V10.0001H18V12.0001ZM18 8.00012H2V5.00012H18V8.00012Z" fill="#5A5A5A"/>
</svg>
